<svg id="chat" enable-background="new 0 0 300 300" height="512" viewBox="0 0 300 300" width="512" xmlns="http://www.w3.org/2000/svg"><path d="m268.892 263.766c-4.295-14.781-15.641-26.471-30.175-32.732 4.962-5.639 8.073-12.947 8.073-21.033 0-17.648-14.352-32-32-32s-32 14.352-32 32c0 8.086 3.111 15.395 8.073 21.033-14.534 6.262-25.88 17.951-30.175 32.732-.703 2.422-.227 5.023 1.281 7.039 1.516 2.008 3.883 3.195 6.398 3.195h92.844c2.516 0 4.883-1.188 6.398-3.195 1.509-2.016 1.986-4.617 1.283-7.039zm-70.102-53.766c0-8.82 7.18-16 16-16s16 7.18 16 16-7.18 16-16 16-16-7.18-16-16zm-17.656 48c7.188-9.773 19.734-16 33.656-16s26.469 6.227 33.656 16z"/><path d="m110.79 161.938 40.758-.312c22.375-2.125 39.242-20.594 39.242-42.961v-49.329c0-23.898-19.437-43.336-43.336-43.336h-73.328c-23.898 0-43.336 19.438-43.336 43.336v49.328c0 22.406 17.086 40.891 38.914 43.109l20.816 16.658c-15.615 2.112-27.73 15.383-27.73 31.569 0 8.086 3.111 15.395 8.073 21.033-14.534 6.262-25.88 17.951-30.175 32.732-.703 2.422-.227 5.023 1.281 7.039 1.516 2.008 3.883 3.195 6.398 3.195h92.844c2.516 0 4.883-1.188 6.398-3.195 1.508-2.016 1.984-4.617 1.281-7.039-4.295-14.781-15.641-26.471-30.175-32.732 4.962-5.639 8.073-12.947 8.073-21.033 0-12.223-6.961-22.736-17.056-28.124.652-1.169 1.056-2.483 1.056-3.876v-16.062zm-36.664-15.938c-15.07 0-27.336-12.266-27.336-27.336v-49.328c0-15.07 12.266-27.336 27.336-27.336h73.328c15.07 0 27.336 12.266 27.336 27.336v49.328c0 14.07-10.641 25.695-24.055 27l-48 .336c-4.398.031-7.945 3.602-7.945 8v7.352l-13.406-10.719c-1.274-2.735-4.047-4.633-7.258-4.633zm54.32 112h-67.312c7.187-9.773 19.734-16 33.656-16s26.469 6.227 33.656 16zm-33.656-32c-8.82 0-16-7.18-16-16s7.18-16 16-16 16 7.18 16 16-7.18 16-16 16z"/><g fill="#18c2c6"><circle cx="110.79" cy="90" r="8"/><circle cx="142.79" cy="90" r="8"/><circle cx="78.79" cy="90" r="8"/></g></svg>